<?xml version="1.0" encoding="UTF-8" standalone="no"?>
<svg
   xmlns:dc="http://purl.org/dc/elements/1.1/"
   xmlns:cc="http://creativecommons.org/ns#"
   xmlns:rdf="http://www.w3.org/1999/02/22-rdf-syntax-ns#"
   xmlns:svg="http://www.w3.org/2000/svg"
   xmlns="http://www.w3.org/2000/svg"
   id="svg8"
   version="1.1"
   viewBox="0 0 756.63387 744.11285"
   height="744.11285mm"
   width="756.63385mm">
  <defs
     id="defs2" />
  <metadata
     id="metadata5">
    <rdf:RDF>
      <cc:Work
         rdf:about="">
        <dc:format>image/svg+xml</dc:format>
        <dc:type
           rdf:resource="http://purl.org/dc/dcmitype/StillImage" />
        <dc:title></dc:title>
      </cc:Work>
    </rdf:RDF>
  </metadata>
  <g
     transform="translate(183.6219,140.97345)"
     id="layer1">
    <path
       id="path21"
       d="m -183.6219,573.62533 v -29.51409 h 3.95602 c 6.78824,0 12.14698,-6.49417 8.11792,-9.83803 -0.73785,-0.61237 -1.34155,-1.46658 -1.34155,-1.8982 0,-0.43171 8.72768,-0.7849 19.39483,-0.7849 17.65623,0 19.56033,0.14927 21.2412,1.66487 1.0155,0.91565 3.21444,2.12304 4.88652,2.68309 3.55501,1.19067 19.76619,1.38395 19.76619,0.23567 0,-0.43037 -0.90555,-0.78302 -2.01232,-0.78364 -1.10678,-6.3e-4 -5.35344,-1.05706 -9.43702,-2.34772 -4.08357,-1.29066 -8.44857,-2.34663 -9.69996,-2.34663 -1.25141,0 -3.4249,-0.81862 -4.82999,-1.81914 -2.50297,-1.7823 -8.00663,-9.12808 -8.00663,-10.68652 0,-0.83185 -2.94905,-2.02413 -5.58979,-2.25988 -0.97215,-0.0868 -1.56514,0.48135 -1.56514,1.49949 0,0.90161 -0.34116,1.63929 -0.75815,1.63929 -1.02018,0 -2.00159,-30.29407 -1.21153,-37.3973 l 0.62813,-5.64739 2.03967,1.90661 c 1.12182,1.04865 2.69605,1.77881 3.49829,1.62265 1.71192,-0.33315 3.68792,-5.29125 3.78485,-9.49674 0.0575,-2.49662 0.54684,-3.15237 3.16959,-4.24824 1.70586,-0.71281 3.79235,-1.29593 4.63665,-1.29593 0.84429,0 3.27201,-0.8408 5.39492,-1.86851 4.62034,-2.23664 5.1708,-4.97107 1.45465,-7.22586 l -2.4052,-1.45942 6.03892,-0.64672 c 8.52004,-0.91243 12.56413,-0.17127 16.12478,2.95499 1.70661,1.49842 4.91545,3.08556 7.368375,3.64445 3.019327,0.68794 24.949482,0.92129 71.869868,0.76486 62.728165,-0.20919 67.842303,-0.34084 71.996483,-1.85277 2.459507,-0.89508 5.152721,-2.49671 5.984929,-3.55904 1.488341,-1.89999 1.999955,-1.93594 31.281139,-2.20139 16.37243,-0.14847 30.697036,-0.0367 31.832466,0.24818 1.13543,0.28504 2.49758,1.46882 3.02699,2.63078 2.05484,4.50993 0.94634,4.43999 73.65617,4.64337 75.19825,0.21036 78.8529,0 83.84283,-4.78092 l 2.57862,-2.47158 29.23294,-0.27019 c 16.07816,-0.14864 30.47621,-0.042 31.99573,0.2371 1.68526,0.30945 3.22178,1.36489 3.93951,2.70608 2.39189,4.46924 2.61003,4.48194 76.92095,4.48194 64.42219,0 69.59556,-0.1126 73.31254,-1.59537 2.19961,-0.87747 4.93583,-2.47525 6.08053,-3.55073 2.42177,-2.27509 10.76951,-3.07411 18.98722,-1.81744 l 4.91901,0.75225 -2.90669,1.73337 c -4.45466,2.65636 -3.63461,4.82073 2.45951,6.49185 5.63487,1.5452 9.25124,4.40735 11.27867,8.92649 l 1.91287,4.2638 1.13182,-2.6831 1.13183,-2.68309 0.67971,2.23591 c 0.58841,1.93559 0.71067,1.9956 0.90966,0.44718 0.12638,-0.9838 0.519,1.02853 0.87237,4.47184 0.85609,8.34086 1.00375,26.2585 0.28637,34.74532 -0.49521,5.85783 -0.817,6.84271 -2.23591,6.84271 -0.91163,0 -1.65753,-0.40247 -1.65753,-0.89437 0,-0.4919 -0.58098,-0.89437 -1.29111,-0.89437 -1.22385,0 -4.36737,3.02761 -10.04901,9.67839 -2.08441,2.44001 -3.65035,3.2038 -8.76702,4.27641 -7.6234,1.59796 -10.90528,3.46871 -9.35731,5.33391 0.65727,0.79196 2.7297,1.28172 5.42353,1.28172 3.72628,0 4.86311,-0.45479 7.82454,-3.13029 l 3.46486,-3.13028 h 24.71027 c 15.87724,0 24.71027,0.31974 24.71027,0.89437 0,0.4919 -1.71048,0.90715 -3.80106,0.92281 -6.33399,0.0474 -9.08104,3.73067 -4.94361,6.62859 1.09327,0.76576 3.50806,1.39226 5.3662,1.39226 h 3.37847 v 30.85564 30.85563 H 194.69502 -183.6219 Z m 391.08454,-35.82796 c 1.85722,-0.51578 3.15821,-1.29137 2.89109,-1.72362 -1.4666,-2.37302 -17.89462,-2.82065 -17.89462,-0.48761 0,0.99463 6.07549,2.99067 9.39084,3.08521 1.22976,0.0349 3.75546,-0.35829 5.61269,-0.87398 z m -247.295535,-1.23333 c 1.094248,-1.09426 -0.945846,-1.68051 -7.158812,-2.05704 -3.574952,-0.21671 -7.506067,0 -8.73582,0.47205 -2.125381,0.82317 -2.036955,0.91341 1.788732,1.82423 3.907826,0.93041 13.091975,0.7747 14.1059,-0.23924 z m 23.345687,0.72766 c 1.537192,-0.3074 2.794894,-0.8865 2.794894,-1.28673 0,-1.0981 -7.607899,-2.01366 -11.173612,-1.34468 -4.116276,0.7722 -4.002683,2.09738 0.217626,2.53884 1.84463,0.193 3.806646,0.41847 4.360035,0.5012 0.553389,0.0823 2.263865,-0.10115 3.801057,-0.40863 z m 40.881061,-0.55898 c 0.368335,-0.36893 0.502007,-0.82595 0.297054,-1.01555 -0.916421,-0.84786 -21.0511988,-1.425 -22.2379871,-0.63742 -1.0380014,0.68884 -0.8605592,0.9567 0.8943663,1.35005 5.5129004,1.23592 19.9082168,1.44306 21.0465668,0.30292 z m 27.873344,0.12217 c 2.056524,-0.36186 1.147964,-1.45773 -1.676937,-2.0227 -3.585371,-0.7171 -11.193888,-0.54279 -14.645247,0.33539 -2.987129,0.76012 -2.929586,0.85662 0.878214,1.47347 1.466814,0.23763 2.872713,0.63777 3.124218,0.88926 0.391115,0.39111 8.91312,-0.076 12.319752,-0.67542 z m 29.651908,-0.40908 c 0.837834,-0.83785 -0.733774,-1.25882 -6.806431,-1.82317 -6.524196,-0.60638 -10.995124,-0.0394 -10.995124,1.39414 0,0.44834 0.905546,0.94373 2.012324,1.10087 2.602087,0.36965 15.287608,-0.17019 15.789231,-0.67184 z m 32.257055,0.54547 c 0.7236,-0.45765 1.10216,-1.0456 0.84123,-1.30649 -0.558,-0.558 -13.28396,-0.95286 -17.808289,-0.55245 -2.557932,0.22627 -1.985582,0.48072 3.130279,1.39163 7.8252,1.39334 12.142,1.53912 13.83678,0.46731 z m 28.64562,-0.0486 c 1.14711,-0.75306 1.15807,-0.99883 0.0757,-1.69572 -3.60687,-2.32204 -16.17422,-1.62104 -16.17422,0.90232 0,0.50192 0.32107,0.71425 0.71348,0.47169 0.39242,-0.24255 1.29796,-0.0716 2.01233,0.38073 1.73305,1.09632 11.67968,1.05241 13.37279,-0.059 z m 36.25861,-0.0456 c 0.93519,-1.51317 0.28638,-1.6941 -8.25031,-2.30004 -7.58015,-0.53805 -15.36472,0.097 -14.29551,1.16617 1.65771,1.6577 21.60216,2.66074 22.54582,1.13387 z m 65.57103,0.15759 c 1.61237,-1.02163 0.57144,-1.5265 -4.7909,-2.32374 -8.6662,-1.28843 -15.37342,-1.30515 -17.10014,-0.0429 -1.53202,1.12019 -1.42029,1.25247 1.46002,1.728 8.773,1.44852 18.66461,1.75743 20.43102,0.63822 z m 31.07262,-0.33601 c 1.28056,-1.28056 -0.71003,-1.94936 -6.83171,-2.2953 -6.56368,-0.3709 -10.6973,0.24496 -10.6973,1.59367 0,0.44834 0.90554,1.00902 2.01232,1.24612 2.95795,0.63348 14.75257,0.21956 15.51669,-0.54449 z m 28.84684,0.55764 c 3.02357,-0.31598 5.49739,-0.88096 5.49739,-1.25543 0,-1.12815 -18.60189,-2.04532 -22.65526,-1.11706 l -3.72855,0.85385 3.13029,0.96592 c 3.7096,1.14479 10.16823,1.34584 17.75613,0.55272 z m 59.77531,-0.63751 c 1.68606,-1.68615 -5.61286,-2.89202 -11.84632,-1.95723 -7.18561,1.07753 -1.72595,3.23206 7.00181,2.76314 2.34735,-0.12619 4.52737,-0.48877 4.84451,-0.80591 z m 34.11605,0.73284 c 4.71671,-0.5562 5.55885,-1.46685 1.69518,-1.833 -12.1793,-1.15436 -19.45309,-1.34352 -20.88345,-0.54297 -1.52615,0.85403 -1.4817,0.96592 0.56748,1.42893 1.22286,0.27627 3.83316,0.60969 5.80077,0.7408 1.9676,0.13112 4.58362,0.35775 5.81338,0.50362 1.22975,0.14587 4.38275,0.0125 7.00664,-0.29738 z m 33.3325,-0.91949 c 1.9871,-1.22806 -2.23064,-1.98979 -11.57033,-2.08951 -6.30922,-0.0671 -8.25733,0.18379 -7.9782,1.02879 0.20303,0.61488 1.74581,1.39029 3.42838,1.72308 3.89872,0.77131 14.50572,0.33539 16.12015,-0.66236 z m 30.93425,0.18406 c 0.72291,-0.72292 -8.65962,-2.36274 -13.51898,-2.36274 -2.61977,0 -6.12149,0.28012 -7.7817,0.62257 l -3.01848,0.62257 3.57746,1.15221 c 3.2978,1.06206 19.6723,1.03478 20.7417,-0.0349 z m 28.89563,-0.01 c 0,-1.53581 -4.58622,-2.33018 -13.52729,-2.34306 -12.96912,-0.0188 -17.47717,2.29924 -5.05398,2.59867 4.0454,0.0975 7.53343,0.35542 7.75121,0.57311 0.21769,0.21769 2.74347,0.39585 5.61295,0.39585 3.81957,0 5.21711,-0.32806 5.21711,-1.22457 z m -563.45074,-0.43556 c 0,-1.09193 -13.136282,-2.04398 -18.347119,-1.32974 -3.316623,0.45461 -3.956685,0.7671 -2.632039,1.2852 2.423706,0.94794 20.979158,0.98729 20.979158,0.0447 z m 409.12194,-0.0465 c 0.38762,-0.62722 -0.45461,-0.99463 -2.35612,-1.02745 -1.62766,-0.0277 -5.53988,-0.26536 -8.69378,-0.52705 -6.57726,-0.54583 -15.38077,0.48501 -11.8194,1.38403 4.15477,1.04873 22.24315,1.1836 22.8693,0.17047 z M -108.94232,451.8545 c -0.9838,-0.5461 -3.0426,-2.17376 -4.57511,-3.61708 -1.53251,-1.44324 -4.55099,-3.14325 -6.70775,-3.77781 l -3.92137,-1.15364 -0.57768,-5.27166 c -0.31774,-2.89945 -0.32165,-13.72343 -0.009,-24.05336 0.31295,-10.32993 0.77415,-16.88116 1.02488,-14.55831 0.37602,3.48356 0.69089,4.07348 1.79743,3.36756 0.73785,-0.47071 2.21835,-0.86199 3.28999,-0.86951 3.31337,-0.0232 4.7593,-2.36318 4.7593,-7.70183 0,-4.41245 0.21862,-4.96034 2.29414,-5.74952 1.26178,-0.47965 4.28026,-0.87219 6.70775,-0.87219 5.785736,0 8.499539,-2.38223 7.487483,-6.5727 -0.374355,-1.54993 -0.71603,-36.89448 -0.759299,-78.54342 l -0.07861,-75.72527 2.160726,-2.30022 2.160726,-2.30013 -2.607909,-2.2429 c -1.434349,-1.23351 -3.714697,-2.24325 -5.067417,-2.24387 -2.73408,0 -3.14936,-0.99829 -1.11796,-2.68417 3.237698,-2.68704 0.13067,-7.14849 -4.98944,-7.16441 -2.28736,-0.009 -3.7937,-0.76504 -5.96655,-3.00185 -1.59868,-1.64582 -2.90668,-3.80473 -2.90668,-4.79774 0,-4.38284 -1.13846,-7.39516 -2.79489,-7.39516 -1.30868,0 -1.67694,0.66335 -1.67694,3.02081 0,1.66138 -0.5752,3.49814 -1.27821,4.08153 -1.06626,0.88498 -1.35655,0.42116 -1.75065,-2.79713 -0.83942,-6.85478 -1.3714,-36.82705 -0.72683,-40.95017 0.60254,-3.85445 0.7612,-4.02384 4.34071,-4.63415 2.28306,-0.38932 5.81757,-2.18119 9.16862,-4.64803 9.88463,-7.27665 5.36622,-6.91479 82.885499,-6.63852 l 68.79416,0.24524 7.413465,4.35368 c 4.077407,2.39458 8.50452,5.78798 9.838029,7.54094 l 2.424564,3.18725 -0.232258,17.01809 c -0.1325,9.70835 -0.612695,17.39856 -1.117958,17.90378 -0.487134,0.48717 -0.8857,2.79132 -0.8857,5.12043 0,7.2314 -0.961721,8.59101 -6.57284,9.29202 -3.963635,0.49521 -5.44348,1.18933 -7.866998,3.68971 -2.937761,3.031 -2.96164,3.12053 -1.508304,5.65284 0.812192,1.41515 1.244761,2.805 0.961256,3.08851 -0.283505,0.28343 -2.902013,0.51543 -5.818917,0.51543 H 31.74768 l 0.544956,4.69542 c 0.29972,2.58248 0.680961,36.28292 0.847206,74.88984 0.231578,53.78147 0.04695,70.82487 -0.789636,72.89085 -1.351656,3.33796 -0.843495,4.93234 1.571992,4.93234 1.738326,0 1.761356,0.10107 0.372655,1.63553 -2.080796,2.29933 -1.84031,5.24054 0.630493,7.7114 1.639203,1.6392 3.487134,2.24299 8.272888,2.70323 3.389227,0.3259 7.772087,0.87871 9.739693,1.2285 l 3.577465,0.63598 0.520584,5.34017 c 0.286322,2.93719 0.954521,6.74889 1.484871,8.47055 0.530359,1.72165 1.195464,11.17957 1.478012,21.0176 0.498421,17.35428 0.454177,17.99143 -1.484872,21.38072 -1.099229,1.92137 -3.134753,4.33616 -4.523391,5.3662 -2.512981,1.86404 -2.89611,1.87379 -81.834512,2.07716 -56.801022,0.14641 -79.817384,-0.0778 -81.098454,-0.78856 z m 225.21014,-0.55361 c -1.07738,-0.84992 -3.05566,-3.75884 -4.39617,-6.4643 -1.34053,-2.70546 -3.17567,-5.4449 -4.0781,-6.08768 -1.43259,-1.02039 -1.64079,-2.50647 -1.64079,-11.71173 0,-9.13729 0.22149,-10.74348 1.66115,-12.0464 1.40314,-1.26982 1.73475,-3.31783 2.13494,-13.18483 0.26058,-6.42477 0.87895,-12.08665 1.37414,-12.58186 0.4952,-0.49521 5.20396,-1.24478 10.4639,-1.66585 5.25995,-0.42097 10.1742,-1.27223 10.92056,-1.89167 2.41588,-2.00499 3.10685,-5.19135 1.72601,-7.95932 -1.09364,-2.19227 -1.09152,-2.57238 0.0156,-2.80706 1.09918,-0.23289 1.28403,-11.358 1.30477,-78.5284 l 0.0241,-78.25704 -6.76335,-0.26125 c -6.85539,-0.26473 -7.51503,-0.68776 -5.86887,-3.76367 2.24591,-4.19645 -3.18079,-8.98596 -9.59106,-8.46482 -3.60097,0.29273 -3.55833,0.52231 -4.23327,-22.80204 -0.27701,-9.5724 -0.90206,-17.80281 -1.38902,-18.28979 -0.48695,-0.48689 -0.88537,-3.74167 -0.88537,-7.23274 0,-6.15923 0.0994,-6.44382 3.35388,-9.60532 1.84463,-1.79195 5.3662,-4.18778 7.8257,-5.32416 l 4.47183,-2.06607 h 71.99649 71.99648 l 5.21914,3.01535 c 2.87052,1.65843 6.89517,4.61887 8.94366,6.57887 5.51261,5.27453 9.46415,6.56545 9.64372,3.1505 0.0856,-1.62695 0.23658,-1.49843 0.78855,0.67077 0.82659,3.24843 0.9129,28.43825 0.11029,32.18967 -0.4078,1.90607 -1.21336,2.80769 -2.80087,3.13484 -1.22564,0.25248 -3.73768,1.04105 -5.58231,1.75225 l -3.35387,1.29316 v 5.43471 c 0,6.76069 -1.59501,9.41016 -5.66509,9.41016 -4.18707,0 -7.12558,2.33152 -6.62064,5.25306 0.2233,1.292 0.68691,3.00051 1.03025,3.79667 0.77916,1.8068 -2.14923,2.72237 -6.63184,2.07341 -1.72166,-0.24926 -3.71983,-0.0599 -4.44036,0.42036 -1.55862,1.03916 -1.54156,7.09965 0.0283,10.03282 0.81336,1.51979 0.78978,3.05515 -0.10417,6.78162 -0.63557,2.64929 -1.48927,5.02321 -1.8971,5.27524 -0.40784,0.25203 -0.74153,1.1735 -0.74153,2.04765 0,1.1786 1.37212,1.97074 5.3096,3.06553 l 5.30961,1.47615 0.61893,4.12741 c 0.83876,5.59319 -0.0458,15.62995 -1.45414,16.50034 -0.62495,0.38628 -2.88078,0.96386 -5.01295,1.2836 -2.97305,0.44584 -3.87668,0.96869 -3.87668,2.24307 0,2.55109 2.76125,12.84489 3.78322,14.10371 1.72695,2.12716 3.37171,1.24245 3.37171,-1.8136 0,-1.82468 0.67532,-3.50967 1.78873,-4.46306 1.77487,-1.51971 1.78873,-1.44584 1.78873,9.5275 0,13.92331 -0.47086,16.5921 -2.81908,15.97803 -2.26616,-0.59261 -7.91331,2.45593 -7.91331,4.27194 0,1.39664 4.53079,3.55377 7.46415,3.55377 2.12503,0 3.26824,3.59776 3.26824,10.28521 0,6.68744 -1.14321,10.28521 -3.26824,10.28521 -3.51593,0 -7.46415,2.14505 -7.46415,4.05515 0,3.0581 1.96971,12.41192 2.80916,13.34027 0.42257,0.46731 0.7683,1.57409 0.7683,2.45951 0,0.9804 0.65863,1.60986 1.68443,1.60986 1.79125,0 2.7545,-2.27276 2.7752,-6.54801 0.007,-1.38788 0.6159,-3.12716 1.35375,-3.86501 1.19249,-1.19246 1.34003,-0.0671 1.32786,10.12557 -0.0156,13.09012 -0.51531,14.78074 -3.39101,11.47347 -2.45031,-2.81815 -3.1448,-2.80885 -4.68166,0.0626 -0.67853,1.26786 -1.95393,2.69061 -2.83423,3.16177 -0.9853,0.52731 -1.60054,1.87584 -1.60054,3.50824 0,2.54644 0.15968,2.65161 4.02465,2.65161 3.77955,0 5.15659,0.98363 3.13028,2.23592 -1.95156,1.20614 -0.9199,5.6329 1.85736,7.96979 2.22897,1.87557 3.68433,2.31542 7.66091,2.31542 7.41382,0 8.36906,0.82246 8.36906,7.20555 0,4.83343 0.21594,5.45233 2.22105,6.36592 1.56953,0.71514 2.3717,1.95562 2.73462,4.22901 0.93201,5.83825 1.21423,6.77742 2.57916,8.58332 1.33607,1.76772 1.35228,1.76513 1.38039,-0.22359 0.0156,-1.10678 0.43091,-2.01232 0.92281,-2.01232 0.4919,0 0.89436,-1.38484 0.89436,-3.07752 0,-1.69258 0.35347,-3.29591 0.78548,-3.56297 1.38578,-0.85645 1.89762,4.70401 1.89762,20.61496 0,13.21677 -0.20053,15.53961 -1.34155,15.53961 -0.73785,0 -1.34155,-0.64734 -1.34155,-1.43849 0,-1.12243 -0.54002,-1.30301 -2.45767,-0.82166 -1.35172,0.33923 -2.51042,0.68473 -2.5749,0.76773 -0.0645,0.0832 -1.5705,2.43938 -3.34672,5.23651 -5.50584,8.67017 2.98516,7.88527 -85.05739,7.86282 -72.37651,-0.0188 -77.97182,-0.12825 -79.79334,-1.56514 z m 223.04059,-1.07959 c -7.90879,-5.01561 -7.91908,-5.05961 -7.493,-32.2157 0.20454,-13.03539 0.68222,-24.63711 1.06143,-25.78163 0.91744,-2.76895 3.82557,-3.74775 12.95463,-4.3603 4.18742,-0.28092 8.3371,-0.88274 9.22154,-1.33735 2.41381,-1.24093 3.55252,-4.99888 2.46246,-8.12603 -0.50532,-1.44941 -0.67301,-3.03297 -0.37259,-3.51897 0.30033,-0.486 0.47365,-33.17187 0.38511,-72.63533 -0.11904,-53.01257 0.11716,-72.85641 0.90421,-75.98196 0.7899,-3.13716 0.80815,-4.79442 0.0707,-6.41341 -0.90653,-1.98969 -1.51139,-2.18305 -6.82723,-2.18305 -4.48203,0 -5.83252,-0.29837 -5.83252,-1.28879 0,-0.70878 0.40246,-1.5375 0.89436,-1.8415 1.49762,-0.92558 1.01073,-3.0971 -1.4046,-6.26378 -1.95115,-2.55807 -3.03548,-3.10613 -7.16673,-3.62227 -2.67729,-0.3345 -5.16184,-1.0643 -5.5212,-1.62167 -0.35926,-0.55737 -0.91377,-12.28242 -1.23207,-26.05566 -0.48019,-20.77711 -0.3633,-25.38506 0.68615,-27.05511 0.69573,-1.10714 4.57585,-3.72316 8.6225,-5.81338 l 7.3575,-3.80052 h 72.89085 72.89085 l 9.52786,4.72306 c 5.24036,2.59768 10.03193,5.33042 10.64797,6.07265 0.86673,1.04435 1.00017,6.95012 0.59001,26.10351 -0.58876,27.49014 -0.47955,27.04796 -6.67733,27.04796 -4.51503,0 -8.45463,4.57021 -8.09491,9.39085 l 0.26697,3.57746 -5.54266,0.26509 c -6.64523,0.31768 -6.99645,0.90904 -6.14877,10.35274 0.82309,9.17083 0.85323,126.28415 0.0367,142.84495 l -0.68741,13.94165 2.1218,1.48617 c 1.2098,0.84732 3.86232,1.49145 6.17103,1.49842 6.372,0.0188 8.07318,0.74483 8.0789,3.44591 0,1.2954 0.42411,3.86446 0.9364,5.70909 0.80019,2.88138 1.29344,3.35388 3.50136,3.35388 2.16839,0 2.67281,-0.45434 3.22777,-2.90669 l 0.65771,-2.90669 0.9026,2.68309 c 0.49637,1.47571 0.93667,11.97789 0.97843,23.33822 0.0823,22.5019 -0.0206,23.00409 -4.97151,24.09137 -1.47839,0.32474 -4.68371,2.36291 -7.123,4.52934 l -4.43507,3.93896 h -77.15769 -77.1577 L 339.3085,450.2213 Z M 97.209101,426.94926 c 0,-5.76365 0.26086,-7.15493 1.34155,-7.15493 1.080689,0 1.341549,1.39128 1.341549,7.15493 0,5.76366 -0.26086,7.15493 -1.341549,7.15493 -1.08069,0 -1.34155,-1.39127 -1.34155,-7.15493 z M 264.67918,235.85692 c -1.60456,-0.64743 -1.42251,-6.25439 0.22359,-6.886 1.06915,-0.41033 1.34155,0.29666 1.34155,3.48177 0,2.19809 -0.10061,3.96482 -0.22359,3.926 -0.12297,-0.0385 -0.72667,-0.27368 -1.34155,-0.52177 z M -159.9212,139.19739 c -3.83084,-0.56014 -4.91901,-1.7873 -4.91901,-5.54739 0,-1.81816 -0.61451,-5.37497 -1.36559,-7.90414 -1.14184,-3.84497 -1.29921,-9.33021 -0.96051,-33.477473 0.46692,-33.288222 1.00916,-41.277596 2.90853,-42.853916 0.73367,-0.608885 3.35393,-1.136382 5.8228,-1.172157 3.76458,-0.05456 4.83657,-0.469273 6.64392,-2.570498 2.24142,-2.605825 2.723,-5.488904 1.29422,-7.748252 -1.39169,-2.200677 0.71238,-2.678537 11.85749,-2.693026 9.99918,-0.01252 10.66397,-0.128163 12.74472,-2.208906 2.31515,-2.315156 2.81594,-5.706325 1.26944,-8.595933 -0.87318,-1.631592 -0.57977,-1.729972 5.15858,-1.729972 5.00825,0 6.66352,-0.393521 9.35852,-2.224826 4.00199,-2.71941 4.92474,-5.178917 3.02867,-8.072728 -0.77864,-1.188344 -1.41572,-2.376063 -1.41572,-2.6392748 0,-0.2633014 5.20116,-0.4786648 11.55814,-0.4786648 11.129682,0 11.660157,-0.085859 14.30986,-2.3154248 2.849353,-2.3975275 3.509225,-5.3304227 1.882981,-8.3691214 -0.733899,-1.3712423 -0.438883,-1.7092233 1.900528,-2.1770663 1.523097,-0.3046211 6.270992,-0.553881 10.550875,-0.553881 6.936856,0 7.97823,-0.2184937 9.592954,-2.012324 2.708168,-3.008648 3.106886,-4.9711559 1.601426,-7.8823179 l -1.358185,-2.626485 h 5.97552 c 4.995501,0 6.456162,-0.366601 8.906171,-2.23529 3.659622,-2.791317 4.443686,-5.117295 2.648576,-7.856918 -0.765604,-1.168489 -1.122295,-2.394218 -0.792632,-2.723882 0.329655,-0.329663 5.520547,-0.599404 11.535312,-0.599404 10.833763,0 10.96189,-0.02415 13.713613,-2.594735 3.06976,-2.867607 3.456753,-4.981441 1.439277,-7.861748 l -1.33841,-1.910903 10.2126072,-0.300417 c 9.2494821,-0.272156 10.4220767,-0.497536 12.4337479,-2.389568 2.8773998,-2.706352 3.3802662,-4.832082 1.8437002,-7.793865 -0.6835462,-1.317491 -1.2428113,-2.550732 -1.2428113,-2.740427 0,-0.189696 2.5826525,-0.344958 5.739229,-0.344958 7.021678,0 13.483358,-2.498054 14.984614,-5.792899 0.889063,-1.951328 0.756044,-2.572197 -0.937135,-4.374524 l -1.973258,-2.100419 4.186412,-0.573826 c 2.302529,-0.315621 6.651876,-0.573825 9.665211,-0.573825 6.959743,0 13.350688,-3.046211 13.779358,-6.567868 0.18872,-1.550384 -0.317456,-2.663959 -1.565141,-3.443131 -1.014247,-0.63339 -1.844076,-1.41283 -1.844076,-1.73194 0,-0.3192 4.326496,-0.751178 9.614437,-0.960013 7.787372,-0.307483 10.32519,-0.762358 13.354578,-2.393413 6.469095,-3.48302 7.266601,-6.323617 2.319754,-8.262692 -2.293897,-0.899107 -2.346576,-1.02396 -0.693697,-1.643488 0.983803,-0.368747 5.583242,-0.931661 10.220987,-1.25095 5.11616,-0.352291 9.243302,-1.112055 10.494601,-1.93192 2.808873,-1.840427 3.541842,-5.26478 1.721539,-8.04295 -0.803418,-1.22617 -1.35086,-2.23654 -1.216544,-2.2453 1.475928,-0.096 16.559771,-1.9931 20.179771,-2.53795 2.60223,-0.39164 5.37106,-1.35183 6.15293,-2.13369 1.86206,-1.86207 0.92282,-5.7251 -1.58553,-6.52127 -3.36486,-1.06796 -0.51265,-2.00669 7.69422,-2.53239 12.85678,-0.82363 17.5177,-1.81083 19.37421,-4.10354 2.12456,-2.62371 2.07357,-3.27114 -0.45686,-5.80157 l -2.10026,-2.10024 3.21822,-0.53242 c 1.77002,-0.29272 5.53239,-0.53671 8.36082,-0.54216 l 5.1426,-0.01 v -3.13028 -3.13028 h 34.88029 34.88028 v 3.13028 c 0,2.9591 0.16503,3.13028 3.01849,3.13028 1.66017,0 4.22229,0.24076 5.69361,0.53501 2.57188,0.51435 2.65809,0.68634 2.23338,4.4543 -0.78746,6.98634 3.93084,10.57919 9.78127,7.44819 1.77138,-0.94802 1.80884,-0.81763 1.22065,4.25021 -0.67067,5.77859 0.46364,10.14328 2.63611,10.14328 1.07845,0 1.26932,0.72193 0.88674,3.35387 -0.85616,5.890028 3.53707,10.397008 7.18417,7.370204 2.29625,-1.905715 3.26264,-0.101332 2.63522,4.920445 -0.32574,2.607078 -0.3179,5.989392 0.0174,7.516165 0.50836,2.31453 1.03416,2.775934 3.16351,2.775934 4.2324,0 7.13523,1.522479 7.20496,3.778876 0.0557,1.802327 0.13785,1.843646 0.72003,0.362308 0.93248,-2.372754 2.96052,9.115291 2.24274,12.704204 -0.30441,1.522032 -0.28654,4.190284 0.0397,5.92929 0.53621,2.858305 0.87558,3.161942 3.53388,3.161942 3.70832,0 4.24893,0.556117 3.06547,3.153536 -1.47286,3.232597 -0.21952,6.041712 3.68073,8.249634 l 3.55474,2.012324 h 52.83465 52.8346 l -1.46077,2.229387 c -2.98343,4.553308 1.22152,9.397374 8.15733,9.397374 4.44885,0 5.78333,1.443865 5.78333,6.257165 0,3.380347 0.4555,4.829935 1.95741,6.229082 2.4842,2.314441 5.58729,2.328214 7.88062,0.03488 l 1.78874,-1.788732 -0.0286,2.012324 c -0.0152,1.106778 -0.61935,2.793553 -1.34155,3.748378 -3.43857,4.5462425 -0.61345,9.9633293 5.632,10.7991146 6.5049,0.8704866 6.71204,0.993462 5.49731,3.26336348 -0.87371,1.63257612 -0.69895,2.60546772 1.03988,5.78851712 1.22466,2.2418184 2.84722,3.9433502 3.9184,4.1091657 1.87835,0.290669 1.91823,0.4716887 0.95223,4.3204151 -0.83149,3.312732 2.39323,7.091072 6.08348,7.128009 3.63032,0.03667 6.14322,1.836224 5.02696,3.60054 -1.47338,2.328572 -0.93693,6.741643 1.03684,8.529928 1.70431,1.544213 3.65188,1.726843 20.79402,1.950613 10.40237,0.135675 19.51722,0.468559 20.25507,0.73973 1.00124,0.367853 0.71764,0.822996 -1.11796,1.79401 -2.9659,1.569076 -3.26122,4.713131 -0.66362,7.063883 2.09854,1.899187 10.05679,2.789886 33.97876,3.802666 15.4483,0.65414 15.60025,0.680166 11.70887,2.004275 -11.49011,3.909722 -3.53767,9.160188 15.11756,9.981127 4.90962,0.216079 7.12327,0.715046 8.27289,1.864664 1.37017,1.370169 2.69025,1.778805 4.82358,1.493324 1.31231,-0.175654 2.08647,2.640616 2.1108,7.678492 0.0394,8.194272 0.56586,9.390845 4.13045,9.390845 h 3.026 v 12.96831 12.968308 h -3.01849 c -2.66521,0 -3.08386,0.32707 -3.57746,2.7949 -0.3074,1.53714 -0.55898,4.99163 -0.55898,7.67661 0,5.6024 -2.04533,6.38327 -2.50781,0.95751 -0.21652,-2.5392 -0.70342,-3.27213 -2.38769,-3.5941 -1.9795,-0.37841 -2.15497,-0.0671 -2.72397,4.83575 -0.41293,3.5577 -1.13218,5.60723 -2.2403,6.38336 -2.0641,1.44574 -4.57244,7.61955 -4.24904,10.45791 0.21375,1.87558 -0.22431,2.2462 -3.33134,2.81806 -6.34839,1.16849 -51.25058,0.86038 -59.02817,-0.40506 -7.26243,-1.18155 -5.88842,-1.18781 -179.32043,0.81629 -25.07684,0.28977 -40.34701,0.10634 -44.87708,-0.53903 -9.08153,-1.29388 -133.1731,-1.32876 -140.70392,-0.0394 -7.10531,1.21634 -79.146859,1.22457 -85.513494,0.01 -6.597418,-1.25882 -131.022966,-1.26964 -137.529364,-0.0116 -4.610782,0.89124 -55.583952,1.11626 -61.365612,0.27091 z M 274.69359,-77.54967 c -0.28796,-0.465965 -0.90479,-0.611568 -1.37073,-0.323582 -0.46593,0.287986 -0.61155,0.904741 -0.32358,1.370706 0.28796,0.465965 0.90479,0.611568 1.37073,0.323582 0.46593,-0.287986 0.61155,-0.904741 0.32358,-1.370706 z M -176.46697,93.797842 c 0,-16.992958 0.31833,-26.383804 0.89437,-26.383804 0.57603,0 0.89436,9.390846 0.89436,26.383804 0,16.992958 -0.31833,26.383808 -0.89436,26.383808 -0.57604,0 -0.89437,-9.39085 -0.89437,-26.383808 z"
       style="fill:#fefefe;stroke-width:0.89436626" />
  </g>
</svg>
